<mxfile host="app.diagrams.net" modified="2024-04-23T11:04:52.452Z" agent="Mozilla/5.0 (Macintosh; Intel Mac OS X 10.15; rv:125.0) Gecko/20100101 Firefox/125.0" etag="Y-_KxZSfyyhI9huOmZJq" version="22.1.21" type="device">
  <diagram name="Page-1" id="dCJnr7kxoOZReF1ts4uA">
    <mxGraphModel dx="692" dy="918" grid="0" gridSize="10" guides="1" tooltips="1" connect="1" arrows="1" fold="1" page="0" pageScale="1" pageWidth="1169" pageHeight="1654" math="0" shadow="0">
      <root>
        <mxCell id="0" />
        <mxCell id="1" parent="0" />
        <mxCell id="ZQSbnM2zQSL4BceJ75by-12" value="" style="whiteSpace=wrap;html=1;aspect=fixed;" vertex="1" parent="1">
          <mxGeometry x="100" y="30" width="920" height="920" as="geometry" />
        </mxCell>
        <mxCell id="2" value="NVIDIA Jetson Nano&#xa;Flask API Server" style="rounded=1;whiteSpace=wrap;html=1;fillColor=#dae8fc;" parent="1" vertex="1">
          <mxGeometry x="410" y="340" width="240" height="100" as="geometry" />
        </mxCell>
        <mxCell id="3" value="NVIDIA Jetson Xavier&#xa;Detection API Server" style="rounded=1;whiteSpace=wrap;html=1;fillColor=#d5e8d4;" parent="1" vertex="1">
          <mxGeometry x="410" y="170" width="240" height="100" as="geometry" />
        </mxCell>
        <mxCell id="4" value="External NAS" style="rounded=1;whiteSpace=wrap;html=1;fillColor=#fff2cc;" parent="1" vertex="1">
          <mxGeometry x="740" y="510" width="240" height="100" as="geometry" />
        </mxCell>
        <mxCell id="5" value="Reolink Camera 1" style="ellipse;whiteSpace=wrap;html=1;aspect=fixed;fillColor=#f8cecc;" parent="1" vertex="1">
          <mxGeometry x="170" y="330" width="120" height="120" as="geometry" />
        </mxCell>
        <mxCell id="6" value="Reolink Camera 2" style="ellipse;whiteSpace=wrap;html=1;aspect=fixed;fillColor=#f8cecc;" parent="1" vertex="1">
          <mxGeometry x="790" y="330" width="120" height="120" as="geometry" />
        </mxCell>
        <mxCell id="7" value="Telegram Bot" style="rounded=1;whiteSpace=wrap;html=1;fillColor=#e1d5e7;" parent="1" vertex="1">
          <mxGeometry x="390" y="710" width="240" height="80" as="geometry" />
        </mxCell>
        <mxCell id="8" value="API: /start, /stop" style="edgeLabel;edgeStyle=orthogonalEdgeStyle;rounded=0;orthogonalLoop=1;jettySize=auto;html=1;strokeColor=#207245;fontColor=#207245;entryX=1;entryY=0.5;entryDx=0;entryDy=0;" parent="1" source="2" target="5" edge="1">
          <mxGeometry x="0.6364" relative="1" as="geometry">
            <mxPoint x="240" y="340" as="targetPoint" />
            <Array as="points">
              <mxPoint x="320" y="390" />
              <mxPoint x="320" y="390" />
            </Array>
            <mxPoint as="offset" />
          </mxGeometry>
        </mxCell>
        <mxCell id="9" value="API: /start, /stop" style="edgeLabel;edgeStyle=orthogonalEdgeStyle;rounded=0;orthogonalLoop=1;jettySize=auto;html=1;entryX=0;entryY=0.5;entryDx=0;entryDy=0;strokeColor=#207245;fontColor=#207245;" parent="1" source="2" target="6" edge="1">
          <mxGeometry x="-0.5714" relative="1" as="geometry">
            <mxPoint as="offset" />
          </mxGeometry>
        </mxCell>
        <mxCell id="10" value="API: /get_image, /disk_space" style="edgeLabel;edgeStyle=orthogonalEdgeStyle;rounded=0;orthogonalLoop=1;jettySize=auto;html=1;strokeColor=#207245;fontColor=#207245;exitX=0.5;exitY=1;exitDx=0;exitDy=0;entryX=0;entryY=0.5;entryDx=0;entryDy=0;" parent="1" source="2" target="4" edge="1">
          <mxGeometry x="-0.0302" relative="1" as="geometry">
            <mxPoint x="510.00448275862095" y="440" as="sourcePoint" />
            <mxPoint x="530" y="511" as="targetPoint" />
            <Array as="points">
              <mxPoint x="530" y="560" />
            </Array>
            <mxPoint as="offset" />
          </mxGeometry>
        </mxCell>
        <mxCell id="11" value="API: /detect" style="edgeLabel;edgeStyle=orthogonalEdgeStyle;rounded=0;orthogonalLoop=1;jettySize=auto;html=1;entryX=0.5;entryY=0;entryDx=0;entryDy=0;strokeColor=#207245;fontColor=#207245;" parent="1" source="3" target="2" edge="1">
          <mxGeometry x="-0.5556" relative="1" as="geometry">
            <mxPoint as="offset" />
          </mxGeometry>
        </mxCell>
        <mxCell id="12" value="API: /start, /stop, /status, /set_interval, /get_image, /disk_space, /arm, /disarm" style="edgeLabel;edgeStyle=orthogonalEdgeStyle;rounded=0;orthogonalLoop=1;jettySize=auto;html=1;strokeColor=#5555ff;fontColor=#5555ff;entryX=0.413;entryY=1.03;entryDx=0;entryDy=0;entryPerimeter=0;" parent="1" target="2" edge="1">
          <mxGeometry x="-0.7004" relative="1" as="geometry">
            <mxPoint x="509" y="710" as="sourcePoint" />
            <mxPoint x="509.63" y="479.96" as="targetPoint" />
            <Array as="points">
              <mxPoint x="510" y="460" />
            </Array>
            <mxPoint as="offset" />
          </mxGeometry>
        </mxCell>
        <mxCell id="ZQSbnM2zQSL4BceJ75by-16" value="" style="whiteSpace=wrap;html=1;aspect=fixed;" vertex="1" parent="1">
          <mxGeometry x="1069" y="30" width="920" height="920" as="geometry" />
        </mxCell>
        <mxCell id="ZQSbnM2zQSL4BceJ75by-21" style="edgeStyle=orthogonalEdgeStyle;rounded=0;orthogonalLoop=1;jettySize=auto;html=1;entryX=0.5;entryY=1;entryDx=0;entryDy=0;" edge="1" parent="1" source="ZQSbnM2zQSL4BceJ75by-13" target="ZQSbnM2zQSL4BceJ75by-20">
          <mxGeometry relative="1" as="geometry" />
        </mxCell>
        <object label="&lt;font style=&quot;font-size: 18px;&quot;&gt;Schauppi&lt;/font&gt;" id="ZQSbnM2zQSL4BceJ75by-13">
          <mxCell style="shape=umlActor;verticalLabelPosition=bottom;verticalAlign=top;html=1;outlineConnect=0;" vertex="1" parent="1">
            <mxGeometry x="1502.5" y="506.5" width="53" height="107" as="geometry" />
          </mxCell>
        </object>
        <mxCell id="ZQSbnM2zQSL4BceJ75by-17" value="&lt;font style=&quot;font-size: 24px;&quot;&gt;Home Network&lt;/font&gt;" style="text;html=1;strokeColor=none;fillColor=none;align=center;verticalAlign=middle;whiteSpace=wrap;rounded=0;" vertex="1" parent="1">
          <mxGeometry x="790" y="53" width="200" height="61" as="geometry" />
        </mxCell>
        <mxCell id="ZQSbnM2zQSL4BceJ75by-18" value="&lt;font style=&quot;font-size: 24px;&quot;&gt;External Network&lt;br&gt;&lt;/font&gt;" style="text;html=1;strokeColor=none;fillColor=none;align=center;verticalAlign=middle;whiteSpace=wrap;rounded=0;" vertex="1" parent="1">
          <mxGeometry x="1090.5" y="53" width="200" height="61" as="geometry" />
        </mxCell>
        <mxCell id="ZQSbnM2zQSL4BceJ75by-20" value="Telegram Bot" style="rounded=1;whiteSpace=wrap;html=1;fillColor=#e1d5e7;" vertex="1" parent="1">
          <mxGeometry x="1409" y="188" width="240" height="80" as="geometry" />
        </mxCell>
      </root>
    </mxGraphModel>
  </diagram>
</mxfile>
